# xmcd
#
# Track frame offsets: 
#        150
#        16988
#        28619
#        44816
#        59606
#        75629
#        88928
#        100024
#        112458
#        128035
#        145044
#        163590
#        176050
#        189826
#        201044
#        215155
#        229590
#        243107
#        257657
#        269093
#
# Disc length: 3849 seconds
#
# Revision: 0
# Processed by: cddbd v1.5.2PL0 Copyright (c) Steve Scherf et al.
# Submitted via: ExactAudioCopyFreeDBPlugin 1.0
#
DISCID=230f0714
DTITLE=Glen Campbell - 2006 - The Platinum Collection
DYEAR=2006
DGENRE=
TTITLE0=Old Home Town (David Pomeranz)
TTITLE1=I Love How You Love Me (Mann, Kolber)
TTITLE2=On The Wings Of My Victory (Corbin)
TTITLE3=Faithless Love (J.D. Souther)
TTITLE4=A Lady Like You (Weatherley, Stegall)
TTITLE5=(Love Always) Letter To Home (Carl Jackson)
TTITLE6=It's Just A Matter Of Time (Benton, Otis, Hendricks)
TTITLE7=Cowpoke (Jones) 
TTITLE8=Call Home (Reid, Seals)
TTITLE9=American Trilogy (Traditional, Arr. by Mickey Newberry)
TTITLE10=Goodnight Lady (Nobles, Cannon)
TTITLE11=After The Glitter Fades (Stevie Nicks)
TTITLE12=Tennessee (Michael Smotherman)
TTITLE13=Hang On Baby (Ease My Mind) (Joe Rainey, Rogers)
TTITLE14=A Few Good Men (Joe Rainey)
TTITLE15=I Was Too Busy Loving You (Jimmy Webb)
TTITLE16=Ruth (Jud Strunk)
TTITLE17=A Woman's Touch (Jerry Fuller)
TTITLE18=Blues (My Naughty Sweetie Gives To Me) (Swanstrom, McCarron, 
TTITLE18=Morgan)
TTITLE19=Mull of Kintyre (Paul McCartney, Denny Laine)
EXTD=
EXTT0=
EXTT1=
EXTT2=
EXTT3=
EXTT4=
EXTT5=
EXTT6=
EXTT7=
EXTT8=
EXTT9=
EXTT10=
EXTT11=
EXTT12=
EXTT13=
EXTT14=
EXTT15=
EXTT16=
EXTT17=
EXTT18=
EXTT19=
PLAYORDER=
